<?xml version="1.0" encoding="UTF-8" standalone="no"?>
<!-- Created with Inkscape (http://www.inkscape.org/) -->

<svg
   xmlns:dc="http://purl.org/dc/elements/1.1/"
   xmlns:cc="http://creativecommons.org/ns#"
   xmlns:rdf="http://www.w3.org/1999/02/22-rdf-syntax-ns#"
   xmlns:svg="http://www.w3.org/2000/svg"
   xmlns="http://www.w3.org/2000/svg"
   xmlns:sodipodi="http://sodipodi.sourceforge.net/DTD/sodipodi-0.dtd"
   xmlns:inkscape="http://www.inkscape.org/namespaces/inkscape"
   width="38.772427mm"
   height="55.477158mm"
   viewBox="0 0 137.38261 196.5726"
   id="svg2"
   version="1.1"
   inkscape:version="0.91 r13725"
   inkscape:export-filename="C:\Users\450 General Use\Documents\xtreme-caregiving\Assets\Art\person_blue_man.png"
   inkscape:export-xdpi="90"
   inkscape:export-ydpi="90"
   sodipodi:docname="person_blue.svg">
  <defs
     id="defs4" />
  <sodipodi:namedview
     id="base"
     pagecolor="#ffffff"
     bordercolor="#666666"
     borderopacity="1.0"
     inkscape:pageopacity="0.0"
     inkscape:pageshadow="2"
     inkscape:zoom="2.8"
     inkscape:cx="19.284239"
     inkscape:cy="112.89449"
     inkscape:document-units="px"
     inkscape:current-layer="layer1"
     showgrid="false"
     fit-margin-top="0"
     fit-margin-left="0"
     fit-margin-right="0"
     fit-margin-bottom="0"
     inkscape:window-width="1920"
     inkscape:window-height="1017"
     inkscape:window-x="-8"
     inkscape:window-y="-8"
     inkscape:window-maximized="1" />
  <metadata
     id="metadata7">
    <rdf:RDF>
      <cc:Work
         rdf:about="">
        <dc:format>image/svg+xml</dc:format>
        <dc:type
           rdf:resource="http://purl.org/dc/dcmitype/StillImage" />
        <dc:title />
      </cc:Work>
    </rdf:RDF>
  </metadata>
  <g
     inkscape:label="Layer 1"
     inkscape:groupmode="layer"
     id="layer1"
     transform="translate(236.16081,-755.21931)">
    <path
       style="opacity:1;fill:#2c5aa0;fill-opacity:1;stroke:none;stroke-width:1;stroke-miterlimit:4;stroke-dasharray:none;stroke-opacity:1"
       d="m -167.07069,813.16546 c -34.8761,0.002 -64.08487,26.41335 -67.58593,61.11328 l -0.15221,76.78571 67.70494,0 67.347797,0 0.20494,-76.78571 C -103.04964,839.60408 -132.22,813.20141 -167.07069,813.16546 Z"
       id="path4152"
       inkscape:connector-curvature="0"
       sodipodi:nodetypes="ccccccc" />
    <circle
       style="opacity:1;fill:#ececec;fill-opacity:1;stroke:none;stroke-width:1;stroke-miterlimit:4;stroke-dasharray:none;stroke-opacity:1"
       id="path4140"
       cx="-168.27266"
       cy="799.17249"
       r="43.953152" />
    <path
       style="fill:#d5d5d5;fill-opacity:1;fill-rule:evenodd;stroke:#a8a8a8;stroke-width:1px;stroke-linecap:butt;stroke-linejoin:miter;stroke-opacity:1"
       d="m -193.19465,797.2015 c -12.24931,-4.56205 1.72198,37.63223 -3.53553,34.85025 -10.45479,-5.53209 -24.59216,-34.21792 -14.14213,-57.57868 10.45144,-23.36392 53.23758,-19.19465 68.18529,-15.65737 22.91158,5.42188 20.70709,21.85916 11.11167,21.71828 -9.06412,-0.13308 -38.6456,-1.57655 -42.93147,-0.50508 0,0 -23.23352,-0.50507 -18.68783,17.1726 z"
       id="path13818-5"
       inkscape:connector-curvature="0"
       sodipodi:nodetypes="csssscc" />
    <path
       style="fill:#d5d5d5;fill-opacity:1;fill-rule:evenodd;stroke:#a8a8a8;stroke-width:1px;stroke-linecap:butt;stroke-linejoin:miter;stroke-opacity:1"
       d="m -318.00142,826.99353 c 11.21493,74.77085 -7.34543,22.11676 -8.58629,27.27411 -32.10356,133.43098 -24.57598,-34.19096 -14.14213,-57.57868 10.42792,-23.37443 53.23758,-19.19465 68.18529,-15.65737 22.91158,5.42188 20.70709,21.85916 11.11167,21.71828 -9.06412,-0.13308 -38.6456,-1.57655 -42.93147,-0.50508 0.28049,0.16362 -3.7867,15.46878 -13.63707,24.74874 z"
       id="path13818-8"
       inkscape:connector-curvature="0"
       sodipodi:nodetypes="csssscc" />
  </g>
</svg>
