<?xml version="1.0" encoding="UTF-8" standalone="no"?>
<!-- Created with Inkscape (http://www.inkscape.org/) -->

<svg
   xmlns:dc="http://purl.org/dc/elements/1.1/"
   xmlns:cc="http://creativecommons.org/ns#"
   xmlns:rdf="http://www.w3.org/1999/02/22-rdf-syntax-ns#"
   xmlns:svg="http://www.w3.org/2000/svg"
   xmlns="http://www.w3.org/2000/svg"
   xmlns:sodipodi="http://sodipodi.sourceforge.net/DTD/sodipodi-0.dtd"
   xmlns:inkscape="http://www.inkscape.org/namespaces/inkscape"
   width="38.772427mm"
   height="55.477158mm"
   viewBox="0 0 137.38261 196.5726"
   id="svg2"
   version="1.1"
   inkscape:version="0.91 r13725"
   inkscape:export-filename="/Users/joannehomik/Desktop/GitRepos/xtreme-caregiving/Assets/Art/person_red_woman_crazy.png.meta"
   inkscape:export-xdpi="89.699997"
   inkscape:export-ydpi="89.699997"
   sodipodi:docname="person_red_crazy.svg">
  <defs
     id="defs4" />
  <sodipodi:namedview
     id="base"
     pagecolor="#ffffff"
     bordercolor="#666666"
     borderopacity="1.0"
     inkscape:pageopacity="0.0"
     inkscape:pageshadow="2"
     inkscape:zoom="1.979899"
     inkscape:cx="-23.694661"
     inkscape:cy="125.64422"
     inkscape:document-units="px"
     inkscape:current-layer="layer1"
     showgrid="false"
     inkscape:window-width="1440"
     inkscape:window-height="775"
     inkscape:window-x="0"
     inkscape:window-y="1"
     inkscape:window-maximized="1"
     fit-margin-top="0"
     fit-margin-left="0"
     fit-margin-right="0"
     fit-margin-bottom="0" />
  <metadata
     id="metadata7">
    <rdf:RDF>
      <cc:Work
         rdf:about="">
        <dc:format>image/svg+xml</dc:format>
        <dc:type
           rdf:resource="http://purl.org/dc/dcmitype/StillImage" />
        <dc:title></dc:title>
      </cc:Work>
    </rdf:RDF>
  </metadata>
  <g
     inkscape:label="Layer 1"
     inkscape:groupmode="layer"
     id="layer1"
     transform="translate(236.16081,-755.21931)">
    <g
       id="g13814">
      <path
         inkscape:transform-center-x="-117.47771"
         transform="matrix(0.08691301,0.15053775,-0.15053775,0.08691301,-30.316821,938.68279)"
         inkscape:transform-center-y="-122.00495"
         d="m -329.19991,721.02132 c -208.84927,361.73758 -355.60821,361.73758 -564.45748,0 -208.84931,-361.73755 -135.46981,-488.83452 282.22874,-488.83452 417.69854,0 491.07801,127.09698 282.22874,488.83452 z"
         inkscape:randomized="0"
         inkscape:rounded="0.74"
         inkscape:flatsided="true"
         sodipodi:arg2="1.5707963"
         sodipodi:arg1="0.52359878"
         sodipodi:r2="162.94484"
         sodipodi:r1="325.88968"
         sodipodi:cy="558.07648"
         sodipodi:cx="-611.42865"
         sodipodi:sides="3"
         id="path4138"
         style="opacity:1;fill:#aa0000;fill-opacity:1;stroke:none;stroke-width:1;stroke-miterlimit:4;stroke-dasharray:none;stroke-opacity:1"
         sodipodi:type="star" />
      <circle
         r="43.953152"
         cy="799.17249"
         cx="-168.27266"
         id="path4140"
         style="opacity:1;fill:#ececec;fill-opacity:1;stroke:none;stroke-width:1;stroke-miterlimit:4;stroke-dasharray:none;stroke-opacity:1" />
    </g>
    <path
       style="fill:#d5d5d5;fill-opacity:1;fill-rule:evenodd;stroke:#a8a8a8;stroke-width:1px;stroke-linecap:butt;stroke-linejoin:miter;stroke-opacity:1"
       d="m -189.20903,804.81472 c 11.21493,74.77085 -7.34543,22.11676 -8.58629,27.27411 -32.10356,133.43098 -24.57598,-34.19096 -14.14213,-57.57868 10.42792,-23.37443 53.23758,-19.19465 68.18529,-15.65737 22.91158,5.42188 20.70709,21.85916 11.11167,21.71828 -9.06412,-0.13308 -38.6456,-1.57655 -42.93147,-0.50508 0.28049,0.16362 -3.7867,15.46878 -13.63707,24.74874 z"
       id="path13818"
       inkscape:connector-curvature="0"
       sodipodi:nodetypes="csssscc" />
    <path
       style="fill:#d5d5d5;fill-opacity:1;fill-rule:evenodd;stroke:#a8a8a8;stroke-width:1px;stroke-linecap:butt;stroke-linejoin:miter;stroke-opacity:1"
       d="m -317.30926,868.50679 c -12.24931,-4.56205 1.72198,37.63223 -3.53553,34.85025 -10.45479,-5.53209 -24.59216,-34.21792 -14.14213,-57.57868 10.45144,-23.36392 53.23758,-19.19465 68.18529,-15.65737 22.91158,5.42188 20.70709,21.85916 11.11167,21.71828 -9.06412,-0.13308 -38.6456,-1.57655 -42.93147,-0.50508 0,0 -23.23352,-0.50507 -18.68783,17.1726 z"
       id="path13818-5"
       inkscape:connector-curvature="0"
       sodipodi:nodetypes="csssscc" />
    <path
       sodipodi:type="spiral"
       style="fill:none;fill-rule:evenodd;stroke:#000000;stroke-width:1px;stroke-linecap:butt;stroke-linejoin:miter;stroke-opacity:1"
       id="path3733"
       sodipodi:cx="-134.64046"
       sodipodi:cy="776.53046"
       sodipodi:expansion="0.88"
       sodipodi:revolution="2.5"
       sodipodi:radius="17.67767"
       sodipodi:argument="-14.137167"
       sodipodi:t0="0"
       d="m -134.64046,776.53046 c 0,-1.46925 1.8827,-0.7991 2.33037,0 1.00823,1.79968 -0.60554,3.80561 -2.33037,4.28875 -2.89128,0.80989 -5.61094,-1.52197 -6.12762,-4.28875 -0.72502,-3.88252 2.37724,-7.36766 6.12762,-7.89293 4.83181,-0.67672 9.07899,3.19411 9.60547,7.89293 0.64467,5.75368 -3.98392,10.75223 -9.60547,11.27711 -6.65477,0.62137 -12.39337,-4.75313 -12.9155,-11.27711 -0.60336,-7.53902 5.50584,-14.00706 12.9155,-14.52594 8.40906,-0.58887 15.59686,6.24482 16.11234,14.52594 0.57683,9.26682 -6.97212,17.16561 -16.11234,17.67767"
       transform="matrix(1.152059,0,0,1.090257,22.50386,-68.712661)" />
  </g>
</svg>
