<?xml version="1.0" encoding="UTF-8" standalone="no"?>
<!-- Created with Inkscape (http://www.inkscape.org/) -->

<svg
   xmlns:dc="http://purl.org/dc/elements/1.1/"
   xmlns:cc="http://creativecommons.org/ns#"
   xmlns:rdf="http://www.w3.org/1999/02/22-rdf-syntax-ns#"
   xmlns:svg="http://www.w3.org/2000/svg"
   xmlns="http://www.w3.org/2000/svg"
   xmlns:sodipodi="http://sodipodi.sourceforge.net/DTD/sodipodi-0.dtd"
   xmlns:inkscape="http://www.inkscape.org/namespaces/inkscape"
   width="1500"
   height="600"
   viewBox="0 0 1499.9999 600.00002"
   id="svg2"
   version="1.1"
   inkscape:version="0.91 r13725"
   sodipodi:docname="room.svg"
   inkscape:export-filename="C:\Users\450 General Use\Desktop\grey.png"
   inkscape:export-xdpi="90"
   inkscape:export-ydpi="90">
  <defs
     id="defs4">
    <filter
       inkscape:menu-tooltip="Pressed metal with a rolled edge"
       inkscape:menu="Bevels"
       inkscape:label="Pressed Steel"
       style="color-interpolation-filters:sRGB;"
       id="filter4694">
      <feGaussianBlur
         result="result1"
         stdDeviation="3"
         id="feGaussianBlur4696" />
      <feBlend
         in2="result1"
         result="result5"
         mode="multiply"
         in="result1"
         id="feBlend4698" />
      <feGaussianBlur
         in="result5"
         result="result6"
         stdDeviation="1"
         id="feGaussianBlur4700" />
      <feComposite
         result="result8"
         in2="result5"
         in="result6"
         operator="xor"
         id="feComposite4702" />
      <feComposite
         in="result6"
         result="fbSourceGraphic"
         operator="xor"
         in2="result8"
         id="feComposite4704" />
      <feSpecularLighting
         in="fbSourceGraphic"
         result="result1"
         lighting-color="rgb(255,255,255)"
         surfaceScale="2"
         specularConstant="2.2"
         specularExponent="55"
         id="feSpecularLighting4706">
        <fePointLight
           x="-5000"
           y="-10000"
           z="20000"
           id="fePointLight4708" />
      </feSpecularLighting>
      <feComposite
         in2="fbSourceGraphic"
         in="result1"
         result="result2"
         operator="in"
         id="feComposite4710" />
      <feComposite
         in="fbSourceGraphic"
         result="result4"
         operator="arithmetic"
         k2="2"
         k3="1"
         in2="result2"
         id="feComposite4712" />
      <feComposite
         in2="result4"
         in="result4"
         operator="in"
         result="result91"
         id="feComposite4714" />
      <feBlend
         mode="darken"
         in2="result91"
         id="feBlend4716" />
    </filter>
  </defs>
  <sodipodi:namedview
     id="base"
     pagecolor="#ffffff"
     bordercolor="#666666"
     borderopacity="1.0"
     inkscape:pageopacity="0.0"
     inkscape:pageshadow="2"
     inkscape:zoom="0.7"
     inkscape:cx="550.10076"
     inkscape:cy="189.9396"
     inkscape:document-units="px"
     inkscape:current-layer="g4546"
     showgrid="false"
     inkscape:window-width="1920"
     inkscape:window-height="1017"
     inkscape:window-x="-8"
     inkscape:window-y="-8"
     inkscape:window-maximized="1"
     fit-margin-top="0"
     fit-margin-left="0"
     fit-margin-right="0"
     fit-margin-bottom="0"
     units="px" />
  <metadata
     id="metadata7">
    <rdf:RDF>
      <cc:Work
         rdf:about="">
        <dc:format>image/svg+xml</dc:format>
        <dc:type
           rdf:resource="http://purl.org/dc/dcmitype/StillImage" />
        <dc:title></dc:title>
      </cc:Work>
    </rdf:RDF>
  </metadata>
  <g
     inkscape:label="Layer 1"
     inkscape:groupmode="layer"
     id="layer1"
     transform="translate(313.36591,607.20679)">
    <g
       id="g4546"
       transform="translate(0,-674.28571)">
      <g
         id="g6059">
        <path
           style="fill:none;fill-rule:evenodd;stroke:#000000;stroke-width:2.4363358;stroke-linecap:butt;stroke-linejoin:miter;stroke-miterlimit:4;stroke-dasharray:none;stroke-opacity:1"
           d="m -313.5763,-258.53966 0,297.25756 296.541744,-0.0171 z"
           id="path4140"
           inkscape:connector-curvature="0"
           sodipodi:nodetypes="cccc" />
        <path
           style="fill:none;fill-rule:evenodd;stroke:#000000;stroke-width:2.4363358;stroke-linecap:butt;stroke-linejoin:miter;stroke-miterlimit:4;stroke-dasharray:none;stroke-opacity:1"
           d="m -13.7878,-258.53966 0,297.25756 296.54174,-0.0171 z"
           id="path4140-5"
           inkscape:connector-curvature="0"
           sodipodi:nodetypes="cccc" />
        <path
           style="fill:none;fill-rule:evenodd;stroke:#000000;stroke-width:2.4363358;stroke-linecap:butt;stroke-linejoin:miter;stroke-miterlimit:4;stroke-dasharray:none;stroke-opacity:1"
           d="m 286.00071,-258.53966 0,297.25756 296.54174,-0.0171 z"
           id="path4140-4"
           inkscape:connector-curvature="0"
           sodipodi:nodetypes="cccc" />
        <path
           style="fill:none;fill-rule:evenodd;stroke:#000000;stroke-width:2.4363358;stroke-linecap:butt;stroke-linejoin:miter;stroke-miterlimit:4;stroke-dasharray:none;stroke-opacity:1"
           d="m 585.78917,-258.53966 0,297.25756 296.54175,-0.0171 z"
           id="path4140-7"
           inkscape:connector-curvature="0"
           sodipodi:nodetypes="cccc" />
        <path
           style="fill:none;fill-rule:evenodd;stroke:#000000;stroke-width:2.4363358;stroke-linecap:butt;stroke-linejoin:miter;stroke-miterlimit:4;stroke-dasharray:none;stroke-opacity:1"
           d="m 885.57768,-258.53966 0,297.25756 296.54172,-0.0171 z"
           id="path4140-1"
           inkscape:connector-curvature="0"
           sodipodi:nodetypes="cccc" />
        <path
           style="fill:none;fill-rule:evenodd;stroke:#000000;stroke-width:2.4363358;stroke-linecap:butt;stroke-linejoin:miter;stroke-miterlimit:4;stroke-dasharray:none;stroke-opacity:1"
           d="m -312.62329,-556.66873 0,297.25756 296.541731,-0.0171 z"
           id="path4140-18"
           inkscape:connector-curvature="0"
           sodipodi:nodetypes="cccc" />
        <path
           style="fill:none;fill-rule:evenodd;stroke:#000000;stroke-width:2.4363358;stroke-linecap:butt;stroke-linejoin:miter;stroke-miterlimit:4;stroke-dasharray:none;stroke-opacity:1"
           d="m -13.073078,-556.66873 0,297.25756 296.541738,-0.0171 z"
           id="path4140-5-7"
           inkscape:connector-curvature="0"
           sodipodi:nodetypes="cccc" />
        <path
           style="fill:none;fill-rule:evenodd;stroke:#000000;stroke-width:2.4363358;stroke-linecap:butt;stroke-linejoin:miter;stroke-miterlimit:4;stroke-dasharray:none;stroke-opacity:1"
           d="m 286.47709,-556.66873 0,297.25756 296.54174,-0.0171 z"
           id="path4140-4-6"
           inkscape:connector-curvature="0"
           sodipodi:nodetypes="cccc" />
        <path
           style="fill:none;fill-rule:evenodd;stroke:#000000;stroke-width:2.4363358;stroke-linecap:butt;stroke-linejoin:miter;stroke-miterlimit:4;stroke-dasharray:none;stroke-opacity:1"
           d="m 586.02726,-556.66873 0,297.25756 296.54174,-0.0171 z"
           id="path4140-7-9"
           inkscape:connector-curvature="0"
           sodipodi:nodetypes="cccc" />
        <path
           style="fill:none;fill-rule:evenodd;stroke:#000000;stroke-width:2.4363358;stroke-linecap:butt;stroke-linejoin:miter;stroke-miterlimit:4;stroke-dasharray:none;stroke-opacity:1"
           d="m 885.57756,-556.66873 0,297.25756 296.54174,-0.0171 z"
           id="path4140-1-8"
           inkscape:connector-curvature="0"
           sodipodi:nodetypes="cccc" />
      </g>
      <rect
         style="opacity:1;fill:#f4e3d7;fill-opacity:1;stroke:#000000;stroke-width:0;stroke-miterlimit:4;stroke-dasharray:none;stroke-opacity:0.36686389"
         id="rect5992"
         width="1500"
         height="600"
         x="-313.36597"
         y="67.078918" />
      <g
         transform="matrix(1.8872211,0,0,1.8872211,101.71742,109.69444)"
         id="layer1-3"
         inkscape:label="Layer 1">
        <g
           id="g10542"
           transform="translate(-3.0278835,0)">
          <path
             style="fill:#8c8a58;fill-opacity:1;fill-rule:evenodd;stroke:#000000;stroke-width:1px;stroke-linecap:butt;stroke-linejoin:miter;stroke-opacity:1"
             d="m 164.69493,319.46838 7.19165,-5.88407 328.2595,0.65378 9.15301,5.23029 1.13762,113.72403 -345.30923,2.24404 -1.68105,-84.58636 z"
             id="path9515"
             sodipodi:nodetypes="cccccccc"
             inkscape:connector-curvature="0" />
          <path
             id="path9494"
             style="fill:#242321;fill-opacity:1;fill-rule:evenodd;stroke:#000000;stroke-width:1px;stroke-linecap:butt;stroke-linejoin:miter;stroke-opacity:1"
             d="m 143.57143,454.34095 3.92857,13.41479 5.78991,0 4.33653,-13.36267 c -5.17244,1.3476 -9.74766,1.62811 -14.05501,-0.0521 z m 378.86471,-1.36954 2.94888,12.0563 c 1.3475,1.19088 3.53593,0.91015 6.22833,-0.25254 l 3.8023,-11.65582 c -4.19008,0.79864 -8.78943,1.97041 -12.97951,-0.14794 z"
             sodipodi:nodetypes="ccccccccccc"
             inkscape:connector-curvature="0" />
          <path
             style="fill:#90905e;fill-opacity:1;fill-rule:evenodd;stroke:#002300;stroke-width:1px;stroke-linecap:butt;stroke-linejoin:miter;stroke-opacity:1"
             d="m 150.37072,425.38167 -1.30757,4.5765 -1.30757,17.65221 1.96135,9.80679 383.77223,-1.30757 0,-26.15143 -6.53786,-5.23029 -370.04272,0.65379 -6.53786,0 z"
             id="path9509"
             inkscape:connector-curvature="0" />
          <path
             style="fill:#787747;fill-opacity:1;fill-rule:evenodd;stroke:#000000;stroke-width:1px;stroke-linecap:butt;stroke-linejoin:miter;stroke-opacity:1"
             d="m 496.50625,357.9931 0,19.41645 27.73778,48.07882 10.17052,5.54755 -0.92459,-55.47556 -1.84919,-9.24592 -35.13452,-8.32134 z"
             id="path9539"
             sodipodi:nodetypes="ccccccc"
             inkscape:connector-curvature="0" />
          <path
             style="fill:#bfbfa1;fill-opacity:1;fill-rule:evenodd;stroke:#000000;stroke-width:1px;stroke-linecap:butt;stroke-linejoin:miter;stroke-opacity:1"
             d="m 497.17714,358.54024 35.65823,12.63632 0.0697,2.41133 20.27794,-0.50908 -0.005,-4.5765 -39.95592,-13.7295 -10.85935,0.17555 -5.18531,3.59188 z"
             id="path9517"
             sodipodi:nodetypes="cccccccc"
             inkscape:connector-curvature="0" />
          <path
             style="fill:#939278;fill-opacity:1;fill-rule:evenodd;stroke:#000000;stroke-width:1px;stroke-linecap:butt;stroke-linejoin:miter;stroke-opacity:1"
             d="m 168.26055,355.30778 -41.1885,13.07571 7.19164,-1.96135 7.84543,0 7.19165,5.88407 -0.24452,-1.71164 32.11527,-11.52362 z"
             id="path9519"
             sodipodi:nodetypes="cccccccc"
             inkscape:connector-curvature="0" />
          <path
             style="fill:#858454;fill-opacity:1;fill-rule:evenodd;stroke:#000000;stroke-width:1px;stroke-linecap:butt;stroke-linejoin:miter;stroke-opacity:1"
             d="m 126.18065,369.15609 0,86.95351 23.53628,1.96135 -0.65378,-85.64593 -6.53786,-5.88407 -13.07572,-0.65379 -3.26892,3.26893 z"
             id="path9521"
             inkscape:connector-curvature="0" />
          <path
             style="fill:#a2a06e;fill-opacity:1;fill-rule:evenodd;stroke:#000000;stroke-width:1px;stroke-linecap:butt;stroke-linejoin:miter;stroke-opacity:1"
             d="m 532.39599,371.49243 2.40074,85.92474 15.69086,-0.65379 3.92271,-5.88407 -1.01288,-82.57552 c -7.6275,-1.21085 -10.76938,-3.08299 -21.00143,3.18864 z"
             id="path9523"
             sodipodi:nodetypes="cccccc"
             inkscape:connector-curvature="0" />
          <path
             style="fill:#bfbc8f;fill-opacity:1;fill-rule:evenodd;stroke:#002300;stroke-width:1px;stroke-linecap:butt;stroke-linejoin:miter;stroke-opacity:1"
             d="m 503.91446,382.89079 18.46034,6.53266 7.19164,7.19164 -124.30578,1.30757 -12.48689,-12.81673 11.06465,-4.66553 84.89503,-0.16475 15.18101,2.61514 z"
             id="path9525"
             sodipodi:nodetypes="cccccccc"
             inkscape:connector-curvature="0" />
          <path
             style="fill:#a7a46f;fill-opacity:1;fill-rule:evenodd;stroke:#002300;stroke-width:1px;stroke-linecap:butt;stroke-linejoin:miter;stroke-opacity:1"
             d="m 403.88095,398.84725 0.6466,19.69006 11.38009,6.73219 106.46716,-1.19541 7.84543,-7.84542 -0.3538,-19.75828 -125.98548,2.37686 z"
             id="path9527"
             sodipodi:nodetypes="ccccccc"
             inkscape:connector-curvature="0" />
          <path
             style="fill:#b5b285;fill-opacity:1;fill-rule:evenodd;stroke:#002300;stroke-width:1px;stroke-linecap:butt;stroke-linejoin:miter;stroke-opacity:1"
             d="m 285.70436,383.53938 -11.11435,14.38328 129.21163,-0.27081 -10.49343,-12.27871 -8.82103,-5.53915 -92.28578,0.27081 -6.49704,3.43458 z"
             id="path9529"
             sodipodi:nodetypes="ccccccc"
             inkscape:connector-curvature="0" />
          <path
             style="fill:#8e8c5b;fill-opacity:1;fill-rule:evenodd;stroke:#002300;stroke-width:1px;stroke-linecap:butt;stroke-linejoin:miter;stroke-opacity:1"
             d="m 149.06315,397.26888 0.65378,24.84386 7.84543,3.34392 106.21327,-0.14999 9.46035,-4.0392 -0.84529,-23.074 -123.32754,-0.92459 z"
             id="path9533"
             sodipodi:nodetypes="ccccccc"
             inkscape:connector-curvature="0" />
          <path
             style="fill:#9b9b66;fill-opacity:1;fill-rule:evenodd;stroke:#002300;stroke-width:1px;stroke-linecap:butt;stroke-linejoin:miter;stroke-opacity:1"
             d="m 272.27549,398.92536 0.85245,18.27544 8.92791,7.00658 113.11832,-0.4623 10.24266,-7.54102 -1.65411,-18.00821 -131.48723,0.72951 z"
             id="path9535"
             sodipodi:nodetypes="ccccccc"
             inkscape:connector-curvature="0" />
          <path
             style="fill:#9c9b6d;fill-opacity:1;fill-rule:evenodd;stroke:#002300;stroke-width:1px;stroke-linecap:butt;stroke-linejoin:miter;stroke-opacity:1"
             d="m 176.0227,383.54458 -15.19141,3.26373 -11.76814,10.46057 123.26258,0 12.64912,-15.26426 -8.42349,-2.38796 -85.16729,-0.40405 -15.36137,4.33197 z"
             id="path9531"
             sodipodi:nodetypes="cccccccc"
             inkscape:connector-curvature="0" />
          <path
             style="fill:#9c9a6a;fill-opacity:1;fill-rule:evenodd;stroke:#000000;stroke-width:1px;stroke-linecap:butt;stroke-linejoin:miter;stroke-opacity:1"
             d="m 183.33586,380.82595 -3.04412,-21.88481 -31.64432,12.8151 -0.39954,23.93071 35.08798,-14.861 z"
             id="path9537"
             sodipodi:nodetypes="ccccc"
             inkscape:connector-curvature="0" />
          <path
             id="path9545"
             style="fill:#797747;fill-opacity:1;fill-rule:evenodd;stroke:none;stroke-width:4;stroke-linecap:round;stroke-linejoin:round;stroke-miterlimit:4;stroke-opacity:1"
             d="m 200.13127,347.60543 c 0,1.58141 -0.73341,2.86487 -1.63707,2.86487 -0.90366,0 -1.63706,-1.28346 -1.63706,-2.86487 0,-1.5814 0.7334,-2.86486 1.63706,-2.86486 0.89596,0 1.62493,1.25873 1.63692,2.82651 m 35.60632,0.85689 c 0,1.58141 -0.73341,2.86487 -1.63707,2.86487 -0.90366,0 -1.63706,-1.28346 -1.63706,-2.86487 0,-1.5814 0.7334,-2.86486 1.63706,-2.86486 0.89596,0 1.62493,1.25873 1.63692,2.82651 m 33.56,1.26615 c 0,1.58141 -0.73341,2.86487 -1.63707,2.86487 -0.90366,0 -1.63706,-1.28346 -1.63706,-2.86487 0,-1.5814 0.7334,-2.86486 1.63706,-2.86486 0.89596,0 1.62493,1.25873 1.63692,2.82651 m 32.33219,-0.37091 c 0,1.58141 -0.73341,2.86487 -1.63707,2.86487 -0.90366,0 -1.63706,-1.28346 -1.63706,-2.86487 0,-1.5814 0.7334,-2.86486 1.63706,-2.86486 0.89596,0 1.62493,1.25873 1.63692,2.82651 m 38.4712,-0.78019 c 0,1.58141 -0.73341,2.86487 -1.63707,2.86487 -0.90366,0 -1.63706,-1.28346 -1.63706,-2.86487 0,-1.5814 0.7334,-2.86486 1.63706,-2.86486 0.89596,0 1.62493,1.25873 1.63692,2.82651 m 36.42486,0.85689 c 0,1.58141 -0.73341,2.86487 -1.63707,2.86487 -0.90366,0 -1.63706,-1.28346 -1.63706,-2.86487 0,-1.5814 0.7334,-2.86486 1.63706,-2.86486 0.89596,0 1.62493,1.25873 1.63692,2.82651 m 29.87659,0.44761 c 0,1.58141 -0.73341,2.86487 -1.63707,2.86487 -0.90366,0 -1.63706,-1.28346 -1.63706,-2.86487 0,-1.5814 0.7334,-2.86486 1.63706,-2.86486 0.89596,0 1.62493,1.25873 1.63692,2.82651 m 33.96926,0.44762 c 0,1.58141 -0.73341,2.86487 -1.63707,2.86487 -0.90366,0 -1.63706,-1.28346 -1.63706,-2.86487 0,-1.5814 0.7334,-2.86486 1.63706,-2.86486 0.89596,0 1.62493,1.25873 1.63692,2.82651 m 34.7878,-1.18945 c 0,1.58141 -0.73341,2.86487 -1.63707,2.86487 -0.90366,0 -1.63706,-1.28346 -1.63706,-2.86487 0,-1.5814 0.7334,-2.86486 1.63706,-2.86486 0.89596,0 1.62493,1.25873 1.63692,2.82651"
             inkscape:connector-curvature="0" />
        </g>
      </g>
      <path
         id="path6181"
         d="m 51.514303,289.55329 c -11.548737,-1.3233 -23.698399,6.73672 -25.984051,22.85628 -0.07975,0.5619 -0.146656,1.13567 -0.199743,1.71527 l -0.681163,0 c 0.983201,-10.93303 5.509175,-18.51963 8.218796,-23.56532 3.512473,-6.54013 0.661528,-12.98306 -0.726492,-15.866 -1.574674,-3.27007 -8.708216,-16.48777 -10.524811,-20.9689 -1.816595,4.48113 -8.896808,17.69883 -10.471482,20.9689 -1.3885049,2.88294 -4.2392069,9.32587 -0.726735,15.866 2.691441,5.01127 7.240686,12.68175 8.29661,23.56532 l -0.777641,0 c -0.05309,-0.57984 -0.119991,-1.15337 -0.199743,-1.71527 -2.285895,-16.1198 -14.4355569,-24.17958 -25.9840529,-22.85628 -12.9163941,1.47989 -19.8487391,21.89392 0.120234,26.82617 -3.2480071,-6.01483 1.804232,-16.84168 13.473689,-10.70637 3.795118,1.99549 6.4385619,5.18338 7.5320589,8.45175 l -1.95501,0 c -1.8442289,0 -3.3393939,1.08331 -3.3393939,2.41994 0,1.33663 1.495165,2.41995 3.3393939,2.41995 l 2.379706,0 c -0.194652,1.05398 -0.595351,2.05173 -1.220275,2.94815 -2.7673139,3.96989 -12.03524786,1.80447 -6.8625319,-6.85672 -8.742396,-1.1507 -11.065621,7.09743 -8.539502,11.5485 2.77628404,5.67498 14.9029189,7.37595 19.4919189,-0.72189 1.100526,-1.94216 1.652971,-4.37471 1.831382,-6.91804 l 0.936659,0 c -0.008,1.92277 -0.128475,3.9328 -0.385426,6.03277 -3.065717,1.97465 -1.870652,6.23591 -5.753522,8.78336 2.439096,0.0642 4.429012,-0.41403 5.071147,-1.31263 0,2.60587 2.331225,4.80256 3.850872,7.965 1.411776,-3.18013 3.68652,-5.84055 3.68652,-7.965 0.641893,0.8986 2.631809,1.37687 5.071146,1.31263 -3.560226,-2.18408 -2.156934,-6.18524 -5.63862,-9.04322 -0.246043,-2.01028 -0.365549,-3.93183 -0.385184,-5.77291 l 0.802851,0 c 0.178168,2.54333 0.731098,4.97588 1.831382,6.91804 4.588999,8.0976 16.715633,6.39687 19.491917,0.72189 2.526362,-4.45083 0.203136,-12.6992 -8.539501,-11.5485 5.172957,8.66119 -4.095218,10.82661 -6.862532,6.85672 -0.624682,-0.89642 -1.02538,-1.89417 -1.220032,-2.94815 l 2.562722,0 c 1.84423,0 3.339394,-1.08356 3.339394,-2.41995 0,-1.33687 -1.495164,-2.41994 -3.339394,-2.41994 l -2.138268,0 c 1.093738,-3.26837 3.73694,-6.45626 7.532058,-8.45175 11.669456,-6.13531 16.721695,4.69154 13.473688,10.70637 19.969946,-4.932 13.037356,-25.34604 0.120961,-26.82617 z"
         inkscape:connector-curvature="0"
         style="fill:#efd1b3;fill-opacity:1" />
      <path
         id="path6181-5"
         d="m 1082.2286,175.26757 c -11.5487,-1.3233 -23.6984,6.73672 -25.984,22.85628 -0.08,0.5619 -0.1467,1.13567 -0.1998,1.71527 l -0.6811,0 c 0.9832,-10.93303 5.5091,-18.51963 8.2187,-23.56532 3.5125,-6.54013 0.6616,-12.98306 -0.7264,-15.866 -1.5747,-3.27007 -8.7083,-16.48777 -10.5249,-20.9689 -1.8166,4.48113 -8.8968,17.69883 -10.4714,20.9689 -1.3885,2.88294 -4.2392,9.32587 -0.7268,15.866 2.6915,5.01127 7.2407,12.68175 8.2966,23.56532 l -0.7776,0 c -0.053,-0.57984 -0.12,-1.15337 -0.1997,-1.71527 -2.2859,-16.1198 -14.4356,-24.17958 -25.9841,-22.85628 -12.9164,1.47989 -19.8487,21.89392 0.1202,26.82617 -3.248,-6.01483 1.8043,-16.84168 13.4737,-10.70636 3.7951,1.99548 6.4386,5.18337 7.5321,8.45174 l -1.955,0 c -1.8443,0 -3.3394,1.08331 -3.3394,2.41994 0,1.33663 1.4951,2.41995 3.3394,2.41995 l 2.3797,0 c -0.1947,1.05398 -0.5954,2.05173 -1.2203,2.94815 -2.7673,3.96989 -12.0352,1.80448 -6.8625,-6.85672 -8.7424,-1.1507 -11.0656,7.09744 -8.5395,11.5485 2.7763,5.67498 14.9029,7.37595 19.4919,-0.72189 1.1005,-1.94216 1.653,-4.3747 1.8314,-6.91804 l 0.9366,0 c -0.01,1.92277 -0.1284,3.9328 -0.3854,6.03277 -3.0657,1.97465 -1.8706,6.23591 -5.7535,8.78336 2.4391,0.0642 4.429,-0.41403 5.0711,-1.31263 0,2.60587 2.3313,4.80256 3.8509,7.965 1.4118,-3.18013 3.6865,-5.84055 3.6865,-7.965 0.6419,0.8986 2.6318,1.37687 5.0712,1.31263 -3.5603,-2.18408 -2.157,-6.18524 -5.6387,-9.04322 -0.246,-2.01028 -0.3655,-3.93183 -0.3851,-5.77291 l 0.8028,0 c 0.1782,2.54334 0.7311,4.97588 1.8314,6.91804 4.589,8.0976 16.7156,6.39687 19.4919,0.72189 2.5264,-4.45083 0.2031,-12.6992 -8.5395,-11.5485 5.173,8.6612 -4.0952,10.82661 -6.8625,6.85672 -0.6247,-0.89642 -1.0254,-1.89417 -1.2201,-2.94815 l 2.5628,0 c 1.8442,0 3.3394,-1.08356 3.3394,-2.41995 0,-1.33687 -1.4952,-2.41994 -3.3394,-2.41994 l -2.1383,0 c 1.0937,-3.26837 3.7369,-6.45626 7.5321,-8.45174 11.6694,-6.13532 16.7217,4.69153 13.4736,10.70636 19.97,-4.932 13.0374,-25.34604 0.121,-26.82617 z"
         inkscape:connector-curvature="0"
         style="fill:#efd1b3;fill-opacity:1" />
      <path
         id="path6181-6"
         d="m 905.08573,289.55329 c -11.54873,-1.3233 -23.6984,6.73672 -25.98405,22.85628 -0.0797,0.5619 -0.14665,1.13567 -0.19974,1.71527 l -0.68116,0 c 0.9832,-10.93303 5.50917,-18.51963 8.21879,-23.56532 3.51248,-6.54013 0.66153,-12.98306 -0.72649,-15.866 -1.57467,-3.27007 -8.70822,-16.48777 -10.52481,-20.9689 -1.8166,4.48113 -8.89681,17.69883 -10.47148,20.9689 -1.38851,2.88294 -4.23921,9.32587 -0.72674,15.866 2.69144,5.01127 7.24069,12.68175 8.29661,23.56532 l -0.77764,0 c -0.0531,-0.57984 -0.11999,-1.15337 -0.19974,-1.71527 -2.2859,-16.1198 -14.43556,-24.17958 -25.98405,-22.85628 -12.9164,1.47989 -19.84874,21.89392 0.12023,26.82617 -3.24801,-6.01483 1.80423,-16.84168 13.47369,-10.70637 3.79512,1.99549 6.43856,5.18338 7.53206,8.45175 l -1.95501,0 c -1.84423,0 -3.3394,1.08331 -3.3394,2.41994 0,1.33663 1.49517,2.41995 3.3394,2.41995 l 2.3797,0 c -0.19465,1.05398 -0.59535,2.05173 -1.22027,2.94815 -2.76732,3.96989 -12.03525,1.80447 -6.86253,-6.85672 -8.7424,-1.1507 -11.06562,7.09743 -8.5395,11.5485 2.77628,5.67498 14.90291,7.37595 19.49191,-0.72189 1.10053,-1.94216 1.65297,-4.37471 1.83139,-6.91804 l 0.93665,0 c -0.008,1.92277 -0.12847,3.9328 -0.38542,6.03277 -3.06572,1.97465 -1.87065,6.23591 -5.75352,8.78336 2.43909,0.0642 4.42901,-0.41403 5.07114,-1.31263 0,2.60587 2.33123,4.80256 3.85087,7.965 1.41178,-3.18013 3.68652,-5.84055 3.68652,-7.965 0.6419,0.8986 2.63181,1.37687 5.07115,1.31263 -3.56022,-2.18408 -2.15693,-6.18524 -5.63862,-9.04322 -0.24604,-2.01028 -0.36555,-3.93183 -0.38518,-5.77291 l 0.80285,0 c 0.17817,2.54333 0.7311,4.97588 1.83138,6.91804 4.589,8.0976 16.71563,6.39687 19.49192,0.72189 2.52636,-4.45083 0.20313,-12.6992 -8.5395,-11.5485 5.17295,8.66119 -4.09522,10.82661 -6.86254,6.85672 -0.62468,-0.89642 -1.02538,-1.89417 -1.22003,-2.94815 l 2.56272,0 c 1.84423,0 3.3394,-1.08356 3.3394,-2.41995 0,-1.33687 -1.49517,-2.41994 -3.3394,-2.41994 l -2.13826,0 c 1.09373,-3.26837 3.73694,-6.45626 7.53205,-8.45175 11.66946,-6.13531 16.7217,4.69154 13.47369,10.70637 19.96995,-4.932 13.03736,-25.34604 0.12096,-26.82617 z"
         inkscape:connector-curvature="0"
         style="fill:#efd1b3;fill-opacity:1" />
      <path
         id="path6181-3"
         d="m 675.08572,175.26757 c -11.54873,-1.3233 -23.6984,6.73672 -25.98405,22.85628 -0.0797,0.5619 -0.14665,1.13567 -0.19974,1.71527 l -0.68116,0 c 0.9832,-10.93303 5.50917,-18.51963 8.21879,-23.56532 3.51248,-6.54013 0.66153,-12.98306 -0.72649,-15.866 -1.57467,-3.27007 -8.70822,-16.48777 -10.52481,-20.9689 -1.8166,4.48113 -8.89681,17.69883 -10.47148,20.9689 -1.38851,2.88294 -4.23921,9.32587 -0.72674,15.866 2.69144,5.01127 7.24069,12.68175 8.29661,23.56532 l -0.77764,0 c -0.0531,-0.57984 -0.11999,-1.15337 -0.19974,-1.71527 -2.2859,-16.1198 -14.43556,-24.17958 -25.98405,-22.85628 -12.9164,1.47989 -19.84874,21.89392 0.12023,26.82617 -3.24801,-6.01483 1.80423,-16.84168 13.47369,-10.70636 3.79512,1.99548 6.43856,5.18337 7.53206,8.45174 l -1.95501,0 c -1.84423,0 -3.3394,1.08331 -3.3394,2.41994 0,1.33663 1.49517,2.41995 3.3394,2.41995 l 2.3797,0 c -0.19465,1.05398 -0.59535,2.05173 -1.22027,2.94815 -2.76732,3.96989 -12.03525,1.80448 -6.86253,-6.85672 -8.7424,-1.1507 -11.06562,7.09744 -8.5395,11.5485 2.77628,5.67498 14.90291,7.37595 19.49191,-0.72189 1.10053,-1.94216 1.65297,-4.3747 1.83139,-6.91804 l 0.93665,0 c -0.008,1.92277 -0.12847,3.9328 -0.38542,6.03277 -3.06572,1.97465 -1.87065,6.23591 -5.75352,8.78336 2.43909,0.0642 4.42901,-0.41403 5.07114,-1.31263 0,2.60587 2.33123,4.80256 3.85087,7.965 1.41178,-3.18013 3.68652,-5.84055 3.68652,-7.965 0.6419,0.8986 2.63181,1.37687 5.07115,1.31263 -3.56022,-2.18408 -2.15693,-6.18524 -5.63862,-9.04322 -0.24604,-2.01028 -0.36555,-3.93183 -0.38518,-5.77291 l 0.80285,0 c 0.17817,2.54334 0.7311,4.97588 1.83138,6.91804 4.589,8.0976 16.71563,6.39687 19.49192,0.72189 2.52636,-4.45083 0.20313,-12.6992 -8.5395,-11.5485 5.17295,8.6612 -4.09522,10.82661 -6.86254,6.85672 -0.62468,-0.89642 -1.02538,-1.89417 -1.22003,-2.94815 l 2.56272,0 c 1.84423,0 3.3394,-1.08356 3.3394,-2.41995 0,-1.33687 -1.49517,-2.41994 -3.3394,-2.41994 l -2.13826,0 c 1.09373,-3.26837 3.73694,-6.45626 7.53205,-8.45174 11.66946,-6.13532 16.7217,4.69153 13.47369,10.70636 19.96995,-4.932 13.03736,-25.34604 0.12096,-26.82617 z"
         inkscape:connector-curvature="0"
         style="fill:#efd1b3;fill-opacity:1" />
      <path
         id="path6181-8"
         d="m 486.15715,289.55329 c -11.54873,-1.3233 -23.6984,6.73672 -25.98405,22.85628 -0.0797,0.5619 -0.14665,1.13567 -0.19974,1.71527 l -0.68116,0 c 0.9832,-10.93303 5.50917,-18.51963 8.21879,-23.56532 3.51248,-6.54013 0.66153,-12.98306 -0.72649,-15.866 -1.57467,-3.27007 -8.70822,-16.48777 -10.52481,-20.9689 -1.8166,4.48113 -8.89681,17.69883 -10.47148,20.9689 -1.38851,2.88294 -4.23921,9.32587 -0.72674,15.866 2.69144,5.01127 7.24069,12.68175 8.29661,23.56532 l -0.77764,0 c -0.0531,-0.57984 -0.11999,-1.15337 -0.19974,-1.71527 -2.2859,-16.1198 -14.43556,-24.17958 -25.98405,-22.85628 -12.9164,1.47989 -19.84874,21.89392 0.12023,26.82617 -3.24801,-6.01483 1.80423,-16.84168 13.47369,-10.70637 3.79512,1.99549 6.43856,5.18338 7.53206,8.45175 l -1.95501,0 c -1.84423,0 -3.3394,1.08331 -3.3394,2.41994 0,1.33663 1.49517,2.41995 3.3394,2.41995 l 2.3797,0 c -0.19465,1.05398 -0.59535,2.05173 -1.22027,2.94815 -2.76732,3.96989 -12.03525,1.80447 -6.86253,-6.85672 -8.7424,-1.1507 -11.06562,7.09743 -8.5395,11.5485 2.77628,5.67498 14.90291,7.37595 19.49191,-0.72189 1.10053,-1.94216 1.65297,-4.37471 1.83139,-6.91804 l 0.93665,0 c -0.008,1.92277 -0.12847,3.9328 -0.38542,6.03277 -3.06572,1.97465 -1.87065,6.23591 -5.75352,8.78336 2.43909,0.0642 4.42901,-0.41403 5.07114,-1.31263 0,2.60587 2.33123,4.80256 3.85087,7.965 1.41178,-3.18013 3.68652,-5.84055 3.68652,-7.965 0.6419,0.8986 2.63181,1.37687 5.07115,1.31263 -3.56022,-2.18408 -2.15693,-6.18524 -5.63862,-9.04322 -0.24604,-2.01028 -0.36555,-3.93183 -0.38518,-5.77291 l 0.80285,0 c 0.17817,2.54333 0.7311,4.97588 1.83138,6.91804 4.589,8.0976 16.71563,6.39687 19.49192,0.72189 2.52636,-4.45083 0.20313,-12.6992 -8.5395,-11.5485 5.17295,8.66119 -4.09522,10.82661 -6.86254,6.85672 -0.62468,-0.89642 -1.02538,-1.89417 -1.22003,-2.94815 l 2.56272,0 c 1.84423,0 3.3394,-1.08356 3.3394,-2.41995 0,-1.33687 -1.49517,-2.41994 -3.3394,-2.41994 l -2.13826,0 c 1.09373,-3.26837 3.73694,-6.45626 7.53205,-8.45175 11.66946,-6.13531 16.7217,4.69154 13.47369,10.70637 19.96995,-4.932 13.03736,-25.34604 0.12096,-26.82617 z"
         inkscape:connector-curvature="0"
         style="fill:#efd1b3;fill-opacity:1" />
      <path
         id="path6181-52"
         d="m -139.2,175.26757 c -11.54873,-1.3233 -23.6984,6.73672 -25.98405,22.85627 -0.0797,0.5619 -0.14665,1.13567 -0.19974,1.71527 l -0.68116,0 c 0.9832,-10.93302 5.50917,-18.51962 8.21879,-23.56531 3.51248,-6.54013 0.66153,-12.98306 -0.72649,-15.866 -1.57467,-3.27007 -8.70822,-16.48777 -10.52481,-20.9689 -1.8166,4.48113 -8.89681,17.69883 -10.47148,20.9689 -1.38851,2.88294 -4.23921,9.32587 -0.72674,15.866 2.69144,5.01127 7.24069,12.68175 8.29661,23.56531 l -0.77764,0 c -0.0531,-0.57984 -0.11999,-1.15337 -0.19974,-1.71527 -2.2859,-16.11979 -14.43556,-24.17957 -25.98405,-22.85627 -12.9164,1.47989 -19.84874,21.89391 0.12023,26.82616 -3.24801,-6.01483 1.80423,-16.84167 13.47369,-10.70637 3.79512,1.99549 6.43856,5.18338 7.53206,8.45175 l -1.95501,0 c -1.84423,0 -3.3394,1.08331 -3.3394,2.41994 0,1.33663 1.49517,2.41995 3.3394,2.41995 l 2.3797,0 c -0.19465,1.05398 -0.59535,2.05173 -1.22027,2.94815 -2.76732,3.96989 -12.03525,1.80447 -6.86253,-6.85672 -8.7424,-1.1507 -11.06562,7.09743 -8.5395,11.5485 2.77628,5.67498 14.90291,7.37595 19.49191,-0.72189 1.10053,-1.94216 1.65297,-4.37471 1.83139,-6.91804 l 0.93665,0 c -0.008,1.92277 -0.12847,3.9328 -0.38542,6.03277 -3.06572,1.97465 -1.87065,6.23591 -5.75352,8.78336 2.43909,0.0642 4.42901,-0.41403 5.07114,-1.31263 0,2.60587 2.33123,4.80256 3.85087,7.965 1.41178,-3.18013 3.68652,-5.84055 3.68652,-7.965 0.6419,0.8986 2.63181,1.37687 5.07115,1.31263 -3.56022,-2.18408 -2.15693,-6.18524 -5.63862,-9.04322 -0.24604,-2.01028 -0.36555,-3.93183 -0.38518,-5.77291 l 0.80285,0 c 0.17817,2.54333 0.7311,4.97588 1.83138,6.91804 4.589,8.0976 16.71563,6.39687 19.49192,0.72189 2.52636,-4.45083 0.20313,-12.6992 -8.5395,-11.5485 5.17295,8.66119 -4.09522,10.82661 -6.86254,6.85672 -0.62468,-0.89642 -1.02538,-1.89417 -1.22003,-2.94815 l 2.56272,0 c 1.84423,0 3.3394,-1.08356 3.3394,-2.41995 0,-1.33687 -1.49517,-2.41994 -3.3394,-2.41994 l -2.13826,0 c 1.09373,-3.26837 3.73694,-6.45626 7.53205,-8.45175 11.66946,-6.1353 16.7217,4.69154 13.47369,10.70637 19.96995,-4.932 13.03736,-25.34603 0.12096,-26.82616 z"
         inkscape:connector-curvature="0"
         style="fill:#efd1b3;fill-opacity:1" />
      <path
         id="path6181-0"
         d="m 267.9429,175.26757 c -11.54873,-1.3233 -23.6984,6.73672 -25.98405,22.85628 -0.0797,0.5619 -0.14665,1.13567 -0.19974,1.71527 l -0.68116,0 c 0.9832,-10.93303 5.50917,-18.51963 8.21879,-23.56532 3.51248,-6.54013 0.66153,-12.98306 -0.72649,-15.866 -1.57467,-3.27007 -8.70822,-16.48777 -10.52481,-20.9689 -1.8166,4.48113 -8.89681,17.69883 -10.47148,20.9689 -1.38851,2.88294 -4.23921,9.32587 -0.72674,15.866 2.69144,5.01127 7.24069,12.68175 8.29661,23.56532 l -0.77764,0 c -0.0531,-0.57984 -0.11999,-1.15337 -0.19974,-1.71527 -2.2859,-16.1198 -14.43556,-24.17958 -25.98405,-22.85628 -12.9164,1.47989 -19.84874,21.89392 0.12023,26.82617 -3.24801,-6.01483 1.80423,-16.84168 13.47369,-10.70637 3.79512,1.99549 6.43856,5.18338 7.53206,8.45175 l -1.95501,0 c -1.84423,0 -3.3394,1.08331 -3.3394,2.41994 0,1.33663 1.49517,2.41995 3.3394,2.41995 l 2.3797,0 c -0.19465,1.05398 -0.59535,2.05173 -1.22027,2.94815 -2.76732,3.96989 -12.03525,1.80447 -6.86253,-6.85672 -8.7424,-1.1507 -11.06562,7.09743 -8.5395,11.5485 2.77628,5.67498 14.90291,7.37595 19.49191,-0.72189 1.10053,-1.94216 1.65297,-4.37471 1.83139,-6.91804 l 0.93665,0 c -0.008,1.92277 -0.12847,3.9328 -0.38542,6.03277 -3.06572,1.97465 -1.87065,6.23591 -5.75352,8.78336 2.43909,0.0642 4.42901,-0.41403 5.07114,-1.31263 0,2.60587 2.33123,4.80256 3.85087,7.965 1.41178,-3.18013 3.68652,-5.84055 3.68652,-7.965 0.6419,0.8986 2.63181,1.37687 5.07115,1.31263 -3.56022,-2.18408 -2.15693,-6.18524 -5.63862,-9.04322 -0.24604,-2.01028 -0.36555,-3.93183 -0.38518,-5.77291 l 0.80285,0 c 0.17817,2.54333 0.7311,4.97588 1.83138,6.91804 4.589,8.0976 16.71563,6.39687 19.49192,0.72189 2.52636,-4.45083 0.20313,-12.6992 -8.5395,-11.5485 5.17295,8.66119 -4.09522,10.82661 -6.86254,6.85672 -0.62468,-0.89642 -1.02538,-1.89417 -1.22003,-2.94815 l 2.56272,0 c 1.84423,0 3.3394,-1.08356 3.3394,-2.41995 0,-1.33687 -1.49517,-2.41994 -3.3394,-2.41994 l -2.13826,0 c 1.09373,-3.26837 3.73694,-6.45626 7.53205,-8.45175 11.66946,-6.13531 16.7217,4.69154 13.47369,10.70637 19.96995,-4.932 13.03736,-25.34604 0.12096,-26.82617 z"
         inkscape:connector-curvature="0"
         style="fill:#efd1b3;fill-opacity:1" />
      <rect
         style="opacity:1;fill:#efd1b3;fill-opacity:1;stroke:#000000;stroke-width:0;stroke-miterlimit:4;stroke-dasharray:none;stroke-opacity:0.36686389"
         id="rect6233"
         width="207.14285"
         height="18.571428"
         x="-120.50882"
         y="487.07892" />
      <rect
         style="opacity:1;fill:#efd1b3;fill-opacity:1;stroke:#000000;stroke-width:3;stroke-miterlimit:4;stroke-dasharray:none;stroke-opacity:0.36686389"
         id="rect6239"
         width="712.85712"
         height="204.28572"
         x="-501.93741"
         y="722.79321"
         ry="34.285713" />
      <path
         style="fill:#b36c26;fill-opacity:1;fill-rule:evenodd;stroke:#414141;stroke-width:2.4;stroke-linecap:butt;stroke-linejoin:miter;stroke-miterlimit:4;stroke-dasharray:none;stroke-opacity:1"
         d="m 162.37173,958.50749 7.14286,51.42861 32.85714,0 5.71429,-51.42861 z"
         id="path6275-5"
         inkscape:connector-curvature="0" />
      <path
         style="fill:#b36c26;fill-opacity:1;fill-rule:evenodd;stroke:#414141;stroke-width:2.4;stroke-linecap:butt;stroke-linejoin:miter;stroke-miterlimit:4;stroke-dasharray:none;stroke-opacity:1"
         d="m -510.50883,957.07892 7.14286,51.42858 32.85714,0 5.71429,-51.42858 z"
         id="path6275"
         inkscape:connector-curvature="0" />
      <path
         style="fill:#efd1b3;fill-rule:evenodd;stroke:#000000;stroke-width:1px;stroke-linecap:butt;stroke-linejoin:miter;stroke-opacity:1;fill-opacity:1"
         d="m -546.22311,965.65035 0,-167.14286 77.14285,0 0,111.42857 647.14286,0 0,-107.14285 80,0 0,164.28571 z"
         id="path6237"
         inkscape:connector-curvature="0" />
      <rect
         style="opacity:1;fill:#ffccaa;fill-opacity:1;stroke:#000000;stroke-width:3;stroke-miterlimit:4;stroke-dasharray:none;stroke-opacity:0.36686389"
         id="rect6243"
         width="221.42857"
         height="71.428574"
         x="-479.08026"
         y="839.93604"
         ry="17.142849" />
      <rect
         style="opacity:1;fill:#ffccaa;fill-opacity:1;stroke:#000000;stroke-width:3;stroke-miterlimit:4;stroke-dasharray:none;stroke-opacity:0.36686389"
         id="rect6243-8"
         width="221.42857"
         height="71.428574"
         x="-255.86595"
         y="839.93604"
         ry="17.142849" />
      <rect
         style="opacity:1;fill:#ffccaa;fill-opacity:1;stroke:#000000;stroke-width:3;stroke-miterlimit:4;stroke-dasharray:none;stroke-opacity:0.36686389"
         id="rect6243-7"
         width="221.42857"
         height="71.428574"
         x="-32.651646"
         y="839.93604"
         ry="17.142849" />
      <path
         sodipodi:type="star"
         style="opacity:1;fill:#b36c26;fill-opacity:1;stroke:#414141;stroke-width:2.4000001;stroke-miterlimit:4;stroke-dasharray:none;stroke-opacity:1"
         id="path6292"
         sodipodi:sides="4"
         sodipodi:cx="-501.93741"
         sodipodi:cy="287.07892"
         sodipodi:r1="33.44714"
         sodipodi:r2="85.761894"
         sodipodi:arg1="1.5374753"
         sodipodi:arg2="2.3228735"
         inkscape:flatsided="false"
         inkscape:rounded="0.08"
         inkscape:randomized="0"
         d="m -500.82312,320.50749 c -5.31399,0.17713 -55.82033,32.83319 -59.70314,29.20089 -3.8828,-3.6323 25.33741,-56.20119 25.16028,-61.51517 -0.17713,-5.31399 -32.83319,-55.82034 -29.20089,-59.70314 3.6323,-3.88281 56.20119,25.33741 61.51517,25.16028 5.31399,-0.17714 55.82034,-32.83319 59.70314,-29.20089 3.88281,3.6323 -25.33741,56.20119 -25.16028,61.51517 0.17714,5.31399 32.83319,55.82033 29.20089,59.70314 -3.6323,3.8828 -56.20119,-25.33741 -61.51517,-25.16028 z"
         inkscape:transform-center-x="-1.5763227"
         inkscape:transform-center-y="-1.3259234"
         transform="matrix(0.10274678,0.10274678,-0.10274678,0.10274678,-298.38159,806.2978)" />
      <path
         sodipodi:type="star"
         style="opacity:1;fill:#b36c26;fill-opacity:1;stroke:#414141;stroke-width:2.4000001;stroke-miterlimit:4;stroke-dasharray:none;stroke-opacity:1"
         id="path6292-8"
         sodipodi:sides="4"
         sodipodi:cx="-501.93741"
         sodipodi:cy="287.07892"
         sodipodi:r1="33.44714"
         sodipodi:r2="85.761894"
         sodipodi:arg1="1.5374753"
         sodipodi:arg2="2.3228735"
         inkscape:flatsided="false"
         inkscape:rounded="0.08"
         inkscape:randomized="0"
         d="m -500.82312,320.50749 c -5.31399,0.17713 -55.82033,32.83319 -59.70314,29.20089 -3.8828,-3.6323 25.33741,-56.20119 25.16028,-61.51517 -0.17713,-5.31399 -32.83319,-55.82034 -29.20089,-59.70314 3.6323,-3.88281 56.20119,25.33741 61.51517,25.16028 5.31399,-0.17714 55.82034,-32.83319 59.70314,-29.20089 3.88281,3.6323 -25.33741,56.20119 -25.16028,61.51517 0.17714,5.31399 32.83319,55.82033 29.20089,59.70314 -3.6323,3.8828 -56.20119,-25.33741 -61.51517,-25.16028 z"
         inkscape:transform-center-x="-1.6997324"
         inkscape:transform-center-y="1.1635231"
         transform="matrix(-0.07146796,0.12651535,-0.12651535,-0.07146796,-225.89907,870.73096)" />
      <path
         sodipodi:type="star"
         style="opacity:1;fill:#b36c26;fill-opacity:1;stroke:#414141;stroke-width:2.4000001;stroke-miterlimit:4;stroke-dasharray:none;stroke-opacity:1"
         id="path6292-9"
         sodipodi:sides="4"
         sodipodi:cx="-501.93741"
         sodipodi:cy="287.07892"
         sodipodi:r1="33.44714"
         sodipodi:r2="85.761894"
         sodipodi:arg1="1.5374753"
         sodipodi:arg2="2.3228735"
         inkscape:flatsided="false"
         inkscape:rounded="0.08"
         inkscape:randomized="0"
         d="m -500.82312,320.50749 c -5.31399,0.17713 -55.82033,32.83319 -59.70314,29.20089 -3.8828,-3.6323 25.33741,-56.20119 25.16028,-61.51517 -0.17713,-5.31399 -32.83319,-55.82034 -29.20089,-59.70314 3.6323,-3.88281 56.20119,25.33741 61.51517,25.16028 5.31399,-0.17714 55.82034,-32.83319 59.70314,-29.20089 3.88281,3.6323 -25.33741,56.20119 -25.16028,61.51517 0.17714,5.31399 32.83319,55.82033 29.20089,59.70314 -3.6323,3.8828 -56.20119,-25.33741 -61.51517,-25.16028 z"
         inkscape:transform-center-x="0.1277957"
         inkscape:transform-center-y="-2.0558505"
         transform="matrix(0.14371425,-0.02144798,0.02144798,0.14371425,143.76536,731.46898)" />
      <path
         sodipodi:type="star"
         style="opacity:1;fill:#b36c26;fill-opacity:1;stroke:#414141;stroke-width:2.4000001;stroke-miterlimit:4;stroke-dasharray:none;stroke-opacity:1"
         id="path6292-87"
         sodipodi:sides="4"
         sodipodi:cx="-501.93741"
         sodipodi:cy="287.07892"
         sodipodi:r1="33.44714"
         sodipodi:r2="85.761894"
         sodipodi:arg1="1.5374753"
         sodipodi:arg2="2.3228735"
         inkscape:flatsided="false"
         inkscape:rounded="0.08"
         inkscape:randomized="0"
         d="m -500.82312,320.50749 c -5.31399,0.17713 -55.82033,32.83319 -59.70314,29.20089 -3.8828,-3.6323 25.33741,-56.20119 25.16028,-61.51517 -0.17713,-5.31399 -32.83319,-55.82034 -29.20089,-59.70314 3.6323,-3.88281 56.20119,25.33741 61.51517,25.16028 5.31399,-0.17714 55.82034,-32.83319 59.70314,-29.20089 3.88281,3.6323 -25.33741,56.20119 -25.16028,61.51517 0.17714,5.31399 32.83319,55.82033 29.20089,59.70314 -3.6323,3.8828 -56.20119,-25.33741 -61.51517,-25.16028 z"
         inkscape:transform-center-x="-1.5763227"
         inkscape:transform-center-y="-1.3259234"
         transform="matrix(0.10274678,0.10274678,-0.10274678,0.10274678,7.5795097,806.2978)" />
    </g>
  </g>
</svg>
